<svg class="thumb" width="1000" height="1000" viewBox="0,0,600,600" xmlns="http://www.w3.org/2000/svg" xmlns:inkscape="http://www.inkscape.org/namespaces/inkscape" xmlns:sodipodi="http://sodipodi.sourceforge.net/DTD/sodipodi-0.dtd" xmlns:xlink="http://www.w3.org/1999/xlink" xmlns:ns1="http://www.inkscape.org/namespaces/inkscape" xmlns:sketch="http://www.bohemiancoding.com/sketch/ns">
  <defs></defs>
  <g transform="matrix(1.4358,0,0,1.4358,16.1202,151.9211)">
    <g transform="matrix(1.557,0,0,1.557,101.144,66.0752)">
      <svg width="109.52000000000001" height="50.184" viewBox="-4.702,24.965999999999998,109.52000000000001,50.184">
        <defs>
          <linearGradient x1="0" y1="0.5" x2="1" y2="0.5" id="linearGradientSkgv0ponc4">
            <stop offset="0%" stop-color="#6d6e71" stop-opacity="0.639216"></stop>
            <stop offset="100%" stop-color="#6d6e71" stop-opacity="0.639216"></stop>
          </linearGradient>
        </defs>
        <g>
          <path d="M99.806,31.057c-0.001-0.015,0.005-0.029,0.003-0.044c-0.002-0.014-0.01-0.024-0.012-0.038   c-0.021-0.127-0.058-0.249-0.116-0.362c-0.009-0.018-0.022-0.033-0.032-0.051c-0.056-0.095-0.124-0.18-0.204-0.257   c-0.02-0.019-0.036-0.038-0.057-0.055c-0.013-0.01-0.021-0.023-0.034-0.033c-0.086-0.067-0.182-0.117-0.279-0.157   c-0.023-0.01-0.048-0.015-0.071-0.023c-0.113-0.038-0.23-0.062-0.351-0.065c-0.011,0-0.021-0.006-0.032-0.006H36.637   c-0.003,0-0.005,0.001-0.008,0.001c-0.094,0-0.189,0.011-0.283,0.035l-0.008,0.002h0L1.204,38.808   c-0.033,0.008-0.059,0.029-0.09,0.04c-0.055,0.019-0.104,0.042-0.155,0.068c-0.083,0.042-0.159,0.093-0.229,0.152   c-0.024,0.021-0.057,0.03-0.08,0.053c-0.016,0.016-0.021,0.037-0.036,0.054c-0.069,0.076-0.122,0.161-0.169,0.251   c-0.021,0.039-0.046,0.073-0.062,0.114c-0.052,0.135-0.085,0.278-0.085,0.429v28.982c0,0.146,0.034,0.286,0.084,0.419   c0.01,0.025,0.016,0.049,0.027,0.073c0.055,0.121,0.129,0.231,0.222,0.328c0.018,0.02,0.037,0.035,0.056,0.053   c0.035,0.032,0.066,0.069,0.106,0.098c0.049,0.035,0.105,0.053,0.158,0.08c0.041,0.021,0.077,0.045,0.12,0.061   c0.137,0.053,0.278,0.087,0.424,0.087c0.002,0,0.004-0.001,0.006-0.001H63.47c0.002,0,0.004,0.001,0.006,0.001   c0.126,0,0.252-0.021,0.375-0.061l35.145-11.569c0.132-0.043,0.249-0.11,0.354-0.191c0.033-0.026,0.057-0.06,0.087-0.089   c0.065-0.062,0.128-0.126,0.178-0.201c0.027-0.041,0.045-0.087,0.067-0.131c0.036-0.074,0.068-0.147,0.089-0.228   c0.014-0.052,0.019-0.104,0.025-0.157c0.006-0.048,0.022-0.092,0.022-0.141v-26.22C99.818,31.127,99.81,31.092,99.806,31.057z    M35.439,32.708v6.201l-23.686-0.096L35.439,32.708z M2.693,41.418h32.747v15.095L2.693,67.19V41.418z M62.277,67.644H9.3   l27.53-9.063h25.447V67.644z M62.277,56.186H37.835V41.418h24.442V56.186z M63.326,39.022l-25.491-0.104v-6.558h51.339   L63.326,39.022z M64.673,67.191V58.58h26.409L64.673,67.191z M97.423,56.186h-32.75V41.149l32.75-8.44V56.186z" fill="url('#linearGradientSkgv0ponc4')" stroke="none" style=""></path>
        </g>
      </svg>
    </g>
    <g transform="matrix(1.9242,0,0,0.5133,1.0457,130.6368)">
      <svg width="186.742" height="17.218999999999994" viewBox="-5,79.525,186.742,17.218999999999994" class="thumb">
        <defs>
          <linearGradient x1="0" y1="0.5" x2="1" y2="0.5" id="linearGradientSkgv0ponca">
            <stop offset="0%" stop-color="#ffffff" stop-opacity="0"></stop>
            <stop offset="52.61%" stop-color="#6d6e71" stop-opacity="0.64"></stop>
            <stop offset="100%" stop-color="#ffffff" stop-opacity="0"></stop>
          </linearGradient>
        </defs>
        <g>
          <rect y="84.525" width="176.742" height="7.219" fill="url('#linearGradientSkgv0ponca')" stroke="none" style=""></rect>
        </g>
      </svg>
    </g>
    <g transform="matrix(1.9242,0,0,0.5133,0.0457,86.6368)">
      <svg width="186.742" height="17.218999999999994" viewBox="-5,79.525,186.742,17.218999999999994" class="thumb">
        <defs>
          <linearGradient x1="0" y1="0.5" x2="1" y2="0.5" id="linearGradientSkgv0ponch">
            <stop offset="0%" stop-color="#ffffff" stop-opacity="0"></stop>
            <stop offset="52.61%" stop-color="#6d6e71" stop-opacity="0.64"></stop>
            <stop offset="100%" stop-color="#ffffff" stop-opacity="0"></stop>
          </linearGradient>
        </defs>
        <g>
          <rect y="84.525" width="176.742" height="7.219" fill="url('#linearGradientSkgv0ponch')" stroke="none" style=""></rect>
        </g>
      </svg>
    </g>
    <g transform="matrix(1.9242,0,0,0.5133,21.0457,70.6368)">
      <svg width="186.742" height="17.218999999999994" viewBox="-5,79.525,186.742,17.218999999999994" class="thumb">
        <defs>
          <linearGradient x1="0" y1="0.5" x2="1" y2="0.5" id="linearGradientSkgv0ponco">
            <stop offset="0%" stop-color="#ffffff" stop-opacity="0"></stop>
            <stop offset="52.61%" stop-color="#6d6e71" stop-opacity="0.64"></stop>
            <stop offset="100%" stop-color="#ffffff" stop-opacity="0"></stop>
          </linearGradient>
        </defs>
        <g>
          <rect y="84.525" width="176.742" height="7.219" fill="url('#linearGradientSkgv0ponco')" stroke="none" style=""></rect>
        </g>
      </svg>
    </g>
    <g transform="matrix(0,-1.0031,0.5133,0,202.6368,205.2911)">
      <svg width="186.742" height="17.218999999999994" viewBox="-5,79.525,186.742,17.218999999999994" class="thumb">
        <defs>
          <linearGradient x1="0" y1="0.5" x2="1" y2="0.5" id="linearGradientSkgv0poncv">
            <stop offset="0%" stop-color="#ffffff" stop-opacity="0"></stop>
            <stop offset="52.61%" stop-color="#6d6e71" stop-opacity="0.64"></stop>
            <stop offset="100%" stop-color="#ffffff" stop-opacity="0"></stop>
          </linearGradient>
        </defs>
        <g>
          <rect y="84.525" width="176.742" height="7.219" fill="url('#linearGradientSkgv0poncv')" stroke="none" style=""></rect>
        </g>
      </svg>
    </g>
    <g transform="matrix(0,-1.0031,0.5133,0,105.6368,206.2911)">
      <svg width="186.742" height="17.218999999999994" viewBox="-5,79.525,186.742,17.218999999999994" class="thumb">
        <defs>
          <linearGradient x1="0" y1="0.5" x2="1" y2="0.5" id="linearGradientSkgv0ponc12">
            <stop offset="0%" stop-color="#ffffff" stop-opacity="0"></stop>
            <stop offset="52.61%" stop-color="#6d6e71" stop-opacity="0.64"></stop>
            <stop offset="100%" stop-color="#ffffff" stop-opacity="0"></stop>
          </linearGradient>
        </defs>
        <g>
          <rect y="84.525" width="176.742" height="7.219" fill="url('#linearGradientSkgv0ponc12')" stroke="none" style=""></rect>
        </g>
      </svg>
    </g>
    <g transform="matrix(1.9242,0,0,0.5133,36.0457,111.6368)">
      <svg width="186.742" height="17.218999999999994" viewBox="-5,79.525,186.742,17.218999999999994" class="thumb">
        <defs>
          <linearGradient x1="0" y1="0.5" x2="1" y2="0.5" id="linearGradientSkgv0ponc19">
            <stop offset="0%" stop-color="#ffffff" stop-opacity="0"></stop>
            <stop offset="52.61%" stop-color="#6d6e71" stop-opacity="0.64"></stop>
            <stop offset="100%" stop-color="#ffffff" stop-opacity="0"></stop>
          </linearGradient>
        </defs>
        <g>
          <rect y="84.525" width="176.742" height="7.219" fill="url('#linearGradientSkgv0ponc19')" stroke="none" style=""></rect>
        </g>
      </svg>
    </g>
    <g transform="matrix(0,-1.0031,0.5133,0,159.6368,191.2911)">
      <svg width="186.742" height="17.218999999999994" viewBox="-5,79.525,186.742,17.218999999999994" class="thumb">
        <defs>
          <linearGradient x1="0" y1="0.5" x2="1" y2="0.5" id="linearGradientSkgv0ponc1g">
            <stop offset="0%" stop-color="#ffffff" stop-opacity="0"></stop>
            <stop offset="52.61%" stop-color="#6d6e71" stop-opacity="0.64"></stop>
            <stop offset="100%" stop-color="#ffffff" stop-opacity="0"></stop>
          </linearGradient>
        </defs>
        <g>
          <rect y="84.525" width="176.742" height="7.219" fill="url('#linearGradientSkgv0ponc1g')" stroke="none" style=""></rect>
        </g>
      </svg>
    </g>
    <g transform="matrix(0,-1.0031,0.5133,0,257.6368,187.2911)">
      <svg width="186.742" height="17.218999999999994" viewBox="-5,79.525,186.742,17.218999999999994" class="thumb">
        <defs>
          <linearGradient x1="0" y1="0.5" x2="1" y2="0.5" id="linearGradientSkgv0ponc1n">
            <stop offset="0%" stop-color="#ffffff" stop-opacity="0"></stop>
            <stop offset="52.61%" stop-color="#6d6e71" stop-opacity="0.64"></stop>
            <stop offset="100%" stop-color="#ffffff" stop-opacity="0"></stop>
          </linearGradient>
        </defs>
        <g>
          <rect y="84.525" width="176.742" height="7.219" fill="url('#linearGradientSkgv0ponc1n')" stroke="none" style=""></rect>
        </g>
      </svg>
    </g>
    <g transform="matrix(-0.2779,-0.2332,0.33,-0.3932,207.0374,94.0264)">
      <svg width="186.742" height="17.218999999999994" viewBox="-5,79.525,186.742,17.218999999999994" class="thumb">
        <defs>
          <linearGradient x1="0" y1="0.5" x2="1" y2="0.5" id="linearGradientSkgv0ponc1u">
            <stop offset="5.69%" stop-color="#6d6e71" stop-opacity="0.64"></stop>
            <stop offset="100%" stop-color="#6d6e71" stop-opacity="0.64"></stop>
          </linearGradient>
        </defs>
        <g>
          <rect y="84.525" width="176.742" height="7.219" fill="url('#linearGradientSkgv0ponc1u')" stroke="none" style=""></rect>
        </g>
      </svg>
    </g>
    <g transform="matrix(-0.2897,0.2183,0.3089,0.41,160.3156,45.2136)">
      <svg width="186.742" height="17.218999999999994" viewBox="-5,79.525,186.742,17.218999999999994" class="thumb">
        <defs>
          <linearGradient x1="0" y1="0.5" x2="1" y2="0.5" id="linearGradientSkgv0ponc20">
            <stop offset="52.61%" stop-color="#6d6e71" stop-opacity="0.64"></stop>
            <stop offset="100%" stop-color="#6d6e71" stop-opacity="0.64"></stop>
          </linearGradient>
        </defs>
        <g>
          <rect y="84.525" width="176.742" height="7.219" fill="url('#linearGradientSkgv0ponc20')" stroke="none" style=""></rect>
        </g>
      </svg>
    </g>
    <g transform="matrix(-0.2897,0.2183,0.3089,0.41,213.3156,33.2136)">
      <svg width="186.742" height="17.218999999999994" viewBox="-5,79.525,186.742,17.218999999999994" class="thumb">
        <defs>
          <linearGradient x1="0" y1="0.5" x2="1" y2="0.5" id="linearGradientSkgv0ponc26">
            <stop offset="52.61%" stop-color="#6d6e71" stop-opacity="0.64"></stop>
            <stop offset="100%" stop-color="#6d6e71" stop-opacity="0.64"></stop>
          </linearGradient>
        </defs>
        <g>
          <rect y="84.525" width="176.742" height="7.219" fill="url('#linearGradientSkgv0ponc26')" stroke="none" style=""></rect>
        </g>
      </svg>
    </g>
    <g transform="matrix(-0.2779,-0.2332,0.33,-0.3932,260.0374,82.0264)">
      <svg width="186.742" height="17.218999999999994" viewBox="-5,79.525,186.742,17.218999999999994" class="thumb">
        <defs>
          <linearGradient x1="0" y1="0.5" x2="1" y2="0.5" id="linearGradientSkgv0ponc2c">
            <stop offset="52.61%" stop-color="#6d6e71" stop-opacity="0.64"></stop>
            <stop offset="100%" stop-color="#6d6e71" stop-opacity="0.64"></stop>
          </linearGradient>
        </defs>
        <g>
          <rect y="84.525" width="176.742" height="7.219" fill="url('#linearGradientSkgv0ponc2c')" stroke="none" style=""></rect>
        </g>
      </svg>
    </g>
  </g>
</svg>